<svg aria-hidden="true" style="position:absolute;width:0;height:0;overflow:hidden" xmlns="http://www.w3.org/2000/svg">
  <defs>
    <symbol id="icon-tegline" viewBox="0 0 32 32">
      <path d="M16.128 15.218a.89.89 0 0 1-.183-.6v-.87c0-.267.061-.47.182-.608s.329-.208.624-.207c.277 0 .473.059.59.177a.721.721 0 0 1 .174.521v.205h-.495v-.207a1.061 1.061 0 0 0-.014-.203.193.193 0 0 0-.071-.12.286.286 0 0 0-.179-.047.303.303 0 0 0-.189.05.233.233 0 0 0-.082.133.972.972 0 0 0-.019.215v1.056a.536.536 0 0 0 .064.297c.025.031.059.056.099.072s.084.021.128.017a.268.268 0 0 0 .175-.048.22.22 0 0 0 .074-.128c.012-.07.017-.141.015-.212v-.214h.495v.196a.795.795 0 0 1-.171.547c-.114.129-.308.194-.593.194s-.5-.069-.623-.213zM18.191 15.226c-.125-.136-.188-.333-.188-.594v-.916c0-.259.063-.454.188-.587s.334-.199.628-.198c.291 0 .499.066.625.198s.189.329.189.587v.916c0 .259-.064.457-.191.593s-.334.205-.623.205c-.288 0-.502-.069-.628-.204zm.858-.219a.507.507 0 0 0 .059-.271v-1.121a.5.5 0 0 0-.058-.266c-.025-.032-.06-.057-.101-.073s-.086-.021-.131-.016c-.044-.005-.09 0-.131.016s-.076.041-.102.073a.48.48 0 0 0-.059.266v1.126a.507.507 0 0 0 .059.271.341.341 0 0 0 .462 0v-.005zM20.227 12.958h.533l.401 1.689.41-1.689h.519l.052 2.438h-.384l-.041-1.695-.396 1.695h-.308l-.41-1.701-.038 1.701h-.388l.048-2.438zM22.741 12.958h.831c.479 0 .718.231.718.692 0 .442-.252.663-.756.662h-.283v1.084h-.513l.003-2.438zm.71 1.042a.384.384 0 0 0 .282-.077.393.393 0 0 0 .074-.275.75.75 0 0 0-.025-.221c-.007-.024-.02-.047-.038-.067s-.04-.037-.065-.049a.537.537 0 0 0-.229-.039h-.199v.729h.199zM25.029 12.958h.551l.565 2.438h-.478l-.112-.562h-.491l-.115.562h-.485l.565-2.438zm.471 1.594-.192-1.023-.192 1.023h.384zM26.601 12.958h.359l.687 1.391v-1.391h.426v2.438h-.342l-.691-1.452v1.452h-.44l.001-2.438zM29.07 14.467l-.571-1.505h.481l.349.967.327-.967h.471l-.564 1.505v.93h-.492v-.93zM16.92 16.462v.128h-.418v.991h-.175v-.991h-.42v-.128h1.014zM18.232 17.581h-.135a.057.057 0 0 1-.038-.011.058.058 0 0 1-.023-.026l-.121-.266h-.58l-.121.266a.078.078 0 0 1-.018.03.07.07 0 0 1-.038.011h-.135l.513-1.118h.178l.519 1.114zm-.849-.415h.484l-.205-.455a.825.825 0 0 1-.038-.105l-.019.059-.018.047-.203.454zM19.116 17.471h.096a.621.621 0 0 0 .156-.033l.069-.027v-.252h-.205c-.005 0-.01 0-.015-.002l-.013-.007-.008-.009a.014.014 0 0 1-.002-.011v-.086h.398v.429a.714.714 0 0 1-.217.091.928.928 0 0 1-.128.023c-.05.005-.1.007-.15.007a.75.75 0 0 1-.258-.042.62.62 0 0 1-.205-.117.537.537 0 0 1-.132-.177.592.592 0 0 1-.001-.466c.029-.066.075-.127.132-.177s.128-.09.205-.116a.982.982 0 0 1 .54-.004.626.626 0 0 1 .192.102l-.049.069c-.004.006-.01.012-.017.015s-.015.006-.023.006a.062.062 0 0 1-.032-.009.513.513 0 0 1-.05-.027.62.62 0 0 0-.293-.065.599.599 0 0 0-.198.031.431.431 0 0 0-.151.089.38.38 0 0 0-.095.139.521.521 0 0 0 0 .373.443.443 0 0 0 .253.23.577.577 0 0 0 .203.022zM20.751 17.453h.56v.128h-.731v-1.118h.175l-.004.991zM21.893 17.581h-.175v-1.118h.175v1.118zM22.545 16.468a.09.09 0 0 1 .027.02l.75.843a.267.267 0 0 1 0-.04V16.458h.153v1.123h-.088a.082.082 0 0 1-.038-.006.12.12 0 0 1-.028-.021l-.749-.842V17.582h-.147v-1.118h.091c.01 0 .02.002.029.005zM24.766 16.462v.123h-.622v.369h.504v.119h-.504v.382h.622v.123h-.802v-1.116h.802zM6.388 9.556l7.787 1.909v6.689l-7.787-1.908v-6.69zm-.499-.57v7.585l8.785 2.154v-7.584L5.889 8.986z"/>
      <path d="m10.597 22.247-8.786-2.156v-7.584l8.786 2.155v7.585zM6.035 9.47l7.686 1.885-3.268 2.823-7.687-1.886 3.27-2.822zm-.146-.484-4.078 3.52 8.786 2.155 4.077-3.52-8.785-2.155zM11.092 21.82l3.582-3.094-3.582-.879v3.973z"/>
    </symbol>
    <symbol id="icon-brand" viewBox="0 0 32 32">
      <path d="M8.078 20.448a.431.431 0 0 1 .111.295c.004.07-.01.14-.039.204s-.075.122-.132.168a.793.793 0 0 1-.499.136h-.877v-1.869h.859c.17-.01.338.034.476.124.055.043.099.096.128.157s.042.127.038.193a.408.408 0 0 1-.1.286.476.476 0 0 1-.261.146.506.506 0 0 1 .296.16zm-1.029-.282h.367a.367.367 0 0 0 .233-.062c.028-.023.049-.051.063-.083s.019-.066.016-.1c.003-.034-.003-.068-.016-.099s-.034-.06-.061-.083a.38.38 0 0 0-.24-.063H7.05v.49zm.637.717c.029-.023.053-.053.068-.086s.022-.069.019-.104a.224.224 0 0 0-.089-.191.403.403 0 0 0-.249-.068H7.05v.514h.39a.405.405 0 0 0 .246-.065zM9.833 21.252l-.478-.73h-.18v.73h-.411v-1.869h.778a.812.812 0 0 1 .542.159.556.556 0 0 1 .058.773.645.645 0 0 1-.371.19l.509.747h-.447zm-.657-.985h.336c.233 0 .35-.094.35-.283.002-.039-.004-.077-.019-.113s-.038-.069-.067-.097a.392.392 0 0 0-.264-.076h-.34l.004.569zM12.079 20.876h-.819l-.145.376h-.431l.752-1.848h.466l.749 1.848h-.431l-.142-.376zm-.11-.283-.299-.789-.299.789h.598zM14.89 21.252h-.408l-.914-1.271v1.271h-.407v-1.869h.407l.914 1.278v-1.278h.408v1.869zM17.217 20.805a.852.852 0 0 1-.369.33 1.295 1.295 0 0 1-.573.118h-.726v-1.869h.726a1.32 1.32 0 0 1 .573.115.838.838 0 0 1 .369.326c.084.152.128.32.128.49s-.044.338-.128.49zm-.466-.045c.116-.124.18-.282.18-.446s-.064-.322-.18-.446a.753.753 0 0 0-.511-.159h-.283v1.21h.283a.75.75 0 0 0 .511-.159zM12.334 8.986s5.264 1.82 5.153 4.453v4.454s-5.261-1.821-5.151-4.454l-.002-4.453zM22.177 16.851a7.626 7.626 0 0 1 3.345-1.129v-1.394c-1.383.488-2.557 1.373-3.345 2.523z"/>
      <path d="M21.579 17.271c.814-1.5 2.225-2.658 3.942-3.235v-4.018s-7.497 2.592-7.339 6.342v6.341s.334-.116.86-.333c0-.203 0-.407.024-.613.155-1.741 1.059-3.354 2.513-4.485z"/>
      <path d="M20.866 19.627c.039-.44.127-.875.262-1.298-.905.977-1.454 2.189-1.568 3.465a5.465 5.465 0 0 0-.02.365c.426-.187.921-.421 1.442-.696a6.028 6.028 0 0 1-.117-1.836zM21.165 19.649a5.732 5.732 0 0 0 .093 1.663c2.048-1.122 4.35-2.856 4.261-4.952v-.183c-1.463.15-2.833.736-3.897 1.667a5.828 5.828 0 0 0-.457 1.804z"/>
    </symbol>
    <symbol id="icon-comp2" viewBox="0 0 32 32">
      <path d="M10.991 21.766c.005 0 .01.001.014.003l.012.007.066.063a.526.526 0 0 1-.185.119.73.73 0 0 1-.263.043.685.685 0 0 1-.247-.04.503.503 0 0 1-.306-.288.578.578 0 0 1-.042-.224.527.527 0 0 1 .371-.514.776.776 0 0 1 .254-.04.694.694 0 0 1 .236.036.657.657 0 0 1 .177.101l-.055.067a.053.053 0 0 1-.014.012c-.007.004-.014.006-.022.005s-.017-.003-.024-.007l-.03-.018-.041-.023c-.018-.008-.036-.016-.055-.022a.532.532 0 0 0-.173-.025.513.513 0 0 0-.183.03.39.39 0 0 0-.236.218.453.453 0 0 0-.034.177.45.45 0 0 0 .034.18.373.373 0 0 0 .228.217.51.51 0 0 0 .17.029.663.663 0 0 0 .1-.006.398.398 0 0 0 .217-.092.049.049 0 0 1 .031-.011zM12.892 21.45a.55.55 0 0 1-.044.222c-.027.064-.069.123-.124.173s-.121.088-.195.113a.806.806 0 0 1-.5 0 .574.574 0 0 1-.193-.114.514.514 0 0 1-.125-.174.584.584 0 0 1 0-.446.522.522 0 0 1 .125-.175.565.565 0 0 1 .193-.109.792.792 0 0 1 .5 0c.073.026.139.064.194.114a.504.504 0 0 1 .168.396zm-.173 0a.479.479 0 0 0-.031-.179.363.363 0 0 0-.227-.218.58.58 0 0 0-.364 0 .37.37 0 0 0-.228.218.524.524 0 0 0 0 .358.379.379 0 0 0 .228.218.595.595 0 0 0 .364 0 .368.368 0 0 0 .227-.218.46.46 0 0 0 .031-.179zM14.189 21.638l.017.04.019-.04c.007-.013.013-.027.021-.039l.421-.664c.008-.011.016-.019.024-.021a.134.134 0 0 1 .035-.004h.124v1.081h-.147V21.126l-.423.674c-.005.01-.014.019-.025.025s-.023.009-.036.009h-.024c-.013 0-.025-.003-.036-.009s-.019-.015-.025-.025l-.435-.678v.867h-.142v-1.078h.124a.105.105 0 0 1 .035.004c.01.004.018.012.023.021l.43.665a.183.183 0 0 1 .021.039zM15.772 21.584v.405h-.165V20.91h.367a.787.787 0 0 1 .205.024.41.41 0 0 1 .145.067.263.263 0 0 1 .082.106.331.331 0 0 1 .028.138.305.305 0 0 1-.119.246.434.434 0 0 1-.146.072.694.694 0 0 1-.198.025l-.199-.003zm0-.116h.199a.505.505 0 0 0 .128-.016.276.276 0 0 0 .092-.047.208.208 0 0 0 .076-.163c.002-.03-.004-.06-.017-.088s-.032-.053-.058-.074a.354.354 0 0 0-.221-.058h-.199v.445zM17.984 21.99h-.13a.063.063 0 0 1-.036-.01.063.063 0 0 1-.021-.025l-.112-.261h-.562l-.116.261a.049.049 0 0 1-.021.024.067.067 0 0 1-.037.011h-.13l.494-1.081h.171l.5 1.081zm-.815-.401h.464l-.196-.44a.73.73 0 0 1-.037-.102l-.019.056a.556.556 0 0 1-.018.046l-.194.439zM18.695 20.915c.01.005.018.011.025.019l.72.815v-.839h.147v1.081h-.082c-.012 0-.023-.002-.034-.006s-.019-.012-.026-.02l-.719-.814V21.991h-.147V20.91h.087c.01 0 .02.001.03.005zM20.801 21.56v.429h-.165v-.429l-.455-.651h.147a.06.06 0 0 1 .035.009.1.1 0 0 1 .022.024l.285.42c.012.018.021.034.03.05s.015.031.021.046l.021-.047a.343.343 0 0 1 .028-.049l.281-.423a.15.15 0 0 1 .021-.023.06.06 0 0 1 .035-.011h.149l-.456.654zM14.108 19.096c.072.008.144.014.217.02 1.111-.432 2.05-1.138 2.701-2.031s.985-1.933.959-2.99l-1.224-1.063c.249 1.125.132 2.288-.336 3.359s-1.271 2.008-2.317 2.705z"/>
      <path d="m13.671 19.047.033.006c1.118-.695 1.971-1.665 2.447-2.786s.555-2.339.226-3.499l-1.743-1.515c.705 1.245.989 2.638.818 4.018s-.788 2.689-1.781 3.775zM19.583 15.344c-.296 1.161-1.016 2.209-2.051 2.986a6.541 6.541 0 0 1-.975.608c.843-.215 1.618-.596 2.266-1.113s1.149-1.156 1.467-1.868l-.707-.614z"/>
      <path d="m19.305 15.173-1.007-.875c-.019.997-.346 1.972-.945 2.822s-1.45 1.546-2.463 2.014h.005c.226 0 .451-.012.676-.035.947-.336 1.784-.87 2.435-1.555s1.098-1.5 1.299-2.371zM13.816 10.615 12.615 9.57c-1.074.36-1.997.994-2.649 1.818s-1.003 1.8-1.006 2.8c.004 1.105.432 2.177 1.216 3.047s1.88 1.487 3.114 1.755c1.101-1.166 1.746-2.607 1.841-4.113s-.366-2.999-1.315-4.262zM22.08 15.012c-.004-1.311-.606-2.567-1.673-3.494s-2.513-1.449-4.022-1.453a6.372 6.372 0 0 0-2.039.33l7.353 6.388a4.32 4.32 0 0 0 .38-1.771z"/>
    </symbol>
    <symbol id="icon-comp1" viewBox="0 0 32 32">
      <path d="M15.129 8.735h-.041c-.063-.004-.127-.005-.19-.007h-.137a7.43 7.43 0 0 0-.391.009 8.526 8.526 0 0 0-3.175.81l-.131.063v6.684l.305-.104c.268-.092.554-.175.849-.252a10.389 10.389 0 0 1 2.444-.325v.878a8.532 8.532 0 0 0-.322.009h-.025a9.713 9.713 0 0 0-1.88.289 9.547 9.547 0 0 0-2.24.873V9.089a9.015 9.015 0 0 1 2.35-.956 9.001 9.001 0 0 1 2.215-.286h.129c.154.004.305.011.446.021.372.026.741.085 1.104.176v.864a6.78 6.78 0 0 0-1.069-.161l-.022-.002c-.075-.006-.149-.013-.219-.013zm1.521.884c.192.015.39.021.591.021a9.478 9.478 0 0 0 2.328-.299 9.586 9.586 0 0 0 2.239-.874v8.42a9.008 9.008 0 0 1-2.351.956 9.048 9.048 0 0 1-2.215.285 6.749 6.749 0 0 1-1.68-.198V9.456a6.862 6.862 0 0 0 1.086.163zm4.285.065-.305.103c-.281.094-.564.179-.849.254-.829.213-1.682.322-2.538.325-.199 0-.383-.005-.56-.017l-.244-.016v6.876l.209.018c.194.017.394.025.596.025a8.126 8.126 0 0 0 1.999-.259 8.41 8.41 0 0 0 1.562-.561l.131-.063V9.683zM10.789 20.592a.453.453 0 0 0-.339-.137.506.506 0 0 0-.196.037c-.057.023-.109.057-.153.101s-.077.096-.098.154a.493.493 0 0 0-.035.19v1.145a.541.541 0 0 0 .045.235.458.458 0 0 0 .115.154.4.4 0 0 0 .157.081.62.62 0 0 0 .171.024.489.489 0 0 0 .475-.483v-.128h-.299v.102a.253.253 0 0 1-.018.102.188.188 0 0 1-.044.064.22.22 0 0 1-.126.044.153.153 0 0 1-.141-.062.275.275 0 0 1-.04-.154v-1.068a.362.362 0 0 1 .037-.171c.016-.024.038-.043.063-.056s.055-.017.083-.013c.026-.001.051.004.075.016s.043.028.059.049a.243.243 0 0 1 .05.154v.099h.296v-.117a.522.522 0 0 0-.137-.361zM12.567 20.579a.532.532 0 0 0-.52-.094.47.47 0 0 0-.274.254.547.547 0 0 0-.044.222v1.099a.46.46 0 0 0 .16.379.478.478 0 0 0 .337.129.524.524 0 0 0 .341-.129.456.456 0 0 0 .113-.154.529.529 0 0 0 .044-.225v-1.099a.53.53 0 0 0-.044-.222.49.49 0 0 0-.113-.16zm-.14 1.481c.002.029-.002.059-.012.086s-.027.052-.048.073a.22.22 0 0 1-.282 0 .202.202 0 0 1-.06-.159v-1.099a.194.194 0 0 1 .06-.159.22.22 0 0 1 .282 0 .202.202 0 0 1 .06.159v1.099zM14.903 22.551v-2.08h-.288l-.378 1.101h-.005l-.381-1.101h-.285v2.08h.297v-1.265h.005l.291.894h.148l.293-.894h.005v1.265h.297zM16.591 20.617a.43.43 0 0 0-.168-.114.63.63 0 0 0-.215-.032h-.441v2.08h.296v-.812h.153a.539.539 0 0 0 .267-.057.429.429 0 0 0 .163-.159.51.51 0 0 0 .068-.181c.012-.078.017-.157.016-.236.003-.1-.007-.2-.029-.297a.44.44 0 0 0-.109-.191zm-.153.634a.265.265 0 0 1-.027.108.168.168 0 0 1-.076.073.294.294 0 0 1-.14.026h-.135v-.707h.153a.295.295 0 0 1 .134.026.169.169 0 0 1 .07.077.31.31 0 0 1 .026.116v.138c0 .048.003.098 0 .143h-.003zM17.995 20.471h-.243l-.458 2.08h.296l.087-.447h.404l.087.447h.296l-.47-2.08zm-.274 1.35.146-.754h.005l.145.754h-.296zM19.909 21.724h-.005l-.448-1.253h-.285v2.08h.296V21.3h.006l.453 1.251h.279v-2.08h-.296v1.253zM21.72 20.471l-.238.827h-.006l-.238-.827h-.314l.407 1.201v.879h.296v-.879l.407-1.201h-.314zM9.962 23.138h.143v.401h.097v-.401h.142v-.082h-.382v.082zM11.163 23.056l-.187.483h.103l.04-.11h.192l.041.11h.105l-.192-.483h-.103zm-.015.292.066-.179.066.179h-.131zM12.35 23.361h.112v.062a.192.192 0 0 1-.115.041.126.126 0 0 1-.103-.047.202.202 0 0 1-.036-.126c0-.107.047-.161.139-.161a.102.102 0 0 1 .109.077l.095-.018c-.021-.094-.089-.142-.205-.142a.246.246 0 0 0-.169.062.24.24 0 0 0-.069.186.26.26 0 0 0 .062.181.226.226 0 0 0 .183.071.288.288 0 0 0 .205-.077v-.19h-.209v.081zM13.562 23.056h-.098v.483h.338v-.082h-.241v-.401zM14.586 23.056h-.098v.483h.098v-.483zM15.588 23.378l-.198-.322h-.095v.483h.091v-.316l.194.316h.097v-.483h-.089v.322zM16.494 23.326h.241v-.082h-.241v-.106h.259v-.082h-.357v.483h.367v-.082h-.269v-.131zM18.69 23.246h-.19v-.19h-.097v.483h.097v-.211h.19v.211h.097v-.483h-.097v.19zM19.602 23.326h.241v-.082h-.241v-.106h.26v-.082h-.357v.483h.366v-.082h-.269v-.131zM20.837 23.326c.084-.013.127-.058.127-.134a.117.117 0 0 0-.047-.107.267.267 0 0 0-.141-.028h-.205v.483h.097v-.202h.019a.124.124 0 0 1 .06.011.103.103 0 0 1 .034.035l.105.154h.116l-.059-.094a.34.34 0 0 0-.107-.116zm-.098-.067h-.072v-.121h.076a.24.24 0 0 1 .099.012c.007.006.013.014.016.023s.005.018.005.028a.061.061 0 0 1-.025.048.275.275 0 0 1-.099.012zM21.769 23.326h.241v-.082h-.241v-.106h.26v-.082h-.357v.483h.367v-.082h-.269v-.131z"/>
    </symbol>
    <symbol id="icon-yaco" viewBox="0 0 32 32">
      <path d="m11.472 9.057 2.116 2.003-3.927-.002v9.717h10.264V17.06l2.113 2.001V9.058H11.472zm8.36 7.767-5.998-5.679h5.998v5.679zm-1.863 2.529h-6.685v-6.535h.473v6.093h6.212v.442zm-5.106 2.715-.247.509-.247-.509h-.207l.36.678v.395h.187v-.395l.36-.678h-.206zm.31 1.073.087-.25h.416l.088.25h.195l-.406-1.073h-.167l-.405 1.073h.194zm.295-.846.155.445h-.311l.156-.445zm.983.42a.282.282 0 0 0 .054.356c.063.056.149.084.255.084s.198-.029.274-.086l.06.072h.208l-.158-.186a.535.535 0 0 0 .093-.325h-.155a.43.43 0 0 1-.045.197l-.207-.245.073-.053c.052-.037.089-.075.111-.112s.034-.079.034-.124c0-.068-.025-.125-.075-.17s-.114-.069-.192-.069c-.086 0-.155.025-.206.074s-.077.115-.077.199c0 .034.008.07.024.107s.046.082.088.134a.62.62 0 0 0-.16.148zm.485.237a.275.275 0 0 1-.169.06c-.054 0-.096-.015-.128-.046s-.048-.071-.048-.121c0-.057.03-.109.088-.153l.023-.016.234.276zm-.193-.475c-.051-.062-.076-.114-.076-.155 0-.036.01-.066.031-.089s.048-.035.083-.035c.032 0 .059.01.08.03s.032.043.032.072a.132.132 0 0 1-.046.104l-.023.018-.082.056zm1.747.583a.388.388 0 0 0 .127-.268h-.186c-.01.077-.033.131-.07.164s-.092.049-.165.049c-.08 0-.141-.03-.183-.091s-.062-.149-.062-.265v-.095c.001-.114.023-.201.066-.26s.106-.089.187-.089c.07 0 .123.017.158.052s.059.089.068.167h.186c-.012-.117-.054-.208-.126-.273s-.168-.097-.286-.097a.407.407 0 0 0-.387.241.625.625 0 0 0-.054.268v.1c.001.099.02.185.055.26s.085.132.15.173c.065.04.141.06.226.06.122 0 .22-.032.294-.096zm1.096-.151a.668.668 0 0 0 .055-.277v-.06c0-.105-.019-.196-.056-.275s-.089-.14-.157-.181c-.067-.042-.145-.063-.232-.063s-.165.021-.233.064c-.067.042-.12.103-.157.184s-.055.172-.055.277v.06c0 .103.019.193.056.272s.09.139.158.182c.068.042.146.063.233.063s.166-.021.233-.063a.413.413 0 0 0 .156-.183zm-.2-.606a.468.468 0 0 1 .068.273v.056c0 .121-.022.213-.067.276s-.108.094-.19.094-.145-.032-.192-.097-.069-.155-.069-.273v-.062c.001-.115.024-.205.069-.268s.109-.095.189-.095a.22.22 0 0 1 .191.095z"/>
    </symbol>
    <symbol id="icon-tel" viewBox="0 0 32 32">
      <path d="M23 0H9C7.346 0 6 1.346 6 3v26c0 1.654 1.346 3 3 3h14c1.654 0 3-1.346 3-3V3c0-1.654-1.346-3-3-3zM9 2h14a1 1 0 0 1 1 1v21H8V3a1 1 0 0 1 1-1zm14 28H9a1 1 0 0 1-1-1v-3h16v3a1 1 0 0 1-1 1z"/>
    </symbol>
    <symbol id="icon-mail" viewBox="0 0 43 32">
      <path d="M29 4H3C1.346 4 0 5.346 0 7v18c0 1.654 1.346 3 3 3h26c1.654 0 3-1.346 3-3V7c0-1.654-1.346-3-3-3zm0 2c.136 0 .265.028.383.077L16 17.676 2.617 6.077A.996.996 0 0 1 3 6h26zm0 20H3a1 1 0 0 1-1-1V8.19l13.345 11.565a.998.998 0 0 0 1.31 0L30 8.19V25a1 1 0 0 1-1 1z"/>
    </symbol>
    <symbol id="icon-man" viewBox="0 0 32 32">
      <path d="M29.935 13.626a2.04 2.04 0 0 0-1.364-.809 2.04 2.04 0 0 0-1.537.404l-1.437 1.102-2.178 1.626-1.558-.621c2.779-1.247 4.721-4.026 4.721-7.253 0-4.387-3.583-7.956-7.988-7.956s-7.988 3.569-7.988 7.956c0 1.59.476 3.069 1.285 4.313l-3.172-.028h-.005c-.01 0-.018.005-.027.005a.576.576 0 0 0-.178.036c-.015.005-.03.009-.044.015l-.022.007-3.71 1.832-.001.001-2.173 1.045a.432.432 0 0 0-.072.04 2.044 2.044 0 0 0 .525 3.654 2.038 2.038 0 0 0 1.582-.147l1.593-.847 2.598-1.342 1.557-.009-6.245 6.215-.002.001-1.536 1.53c-.363.361-.562.84-.562 1.351s.2.991.562 1.353c.373.371.863.557 1.353.557s.98-.186 1.354-.557l1.508-1.502 1.998-1.491 1.034 1.029-2.022 2.013-.002.001-1.536 1.53c-.363.361-.562.84-.562 1.351s.2.991.562 1.353c.373.371.864.557 1.354.557s.981-.186 1.354-.557l3.995-3.978.001-.002 1.159-1.148-.004-.004c.007-.007.018-.01.025-.018l5.928-6.493 3.983.567a.611.611 0 0 0 .301-.038c.02-.007.038-.017.057-.027.022-.011.045-.017.066-.031l3.687-2.448c.013-.009.021-.024.034-.034.015-.012.033-.016.046-.029l1.459-1.367a2.041 2.041 0 0 0 .243-2.71zM4.019 17.769a.814.814 0 0 1-.641.059.819.819 0 0 1-.244-1.446l1.507-.725.515 1.506-1.138.605zm4.013-2.097-1.777.918-.504-1.473 2.326-1.148-.045 1.703zm17.327-7.598a6.661 6.661 0 0 1-.687 2.937l-4.798-2.179a2.136 2.136 0 0 0-.905-1.593l1.68-5.577c2.728.868 4.71 3.413 4.71 6.412zm-13.528 0c0-3.712 3.034-6.732 6.764-6.732.29 0 .574.024.855.06l-1.643 5.455c-.022-.001-.043-.007-.066-.007-1.185 0-2.149.961-2.149 2.142s.964 2.142 2.149 2.142c.797 0 1.485-.44 1.857-1.084l4.432 2.014a6.761 6.761 0 0 1-5.436 2.743c-3.73 0-6.764-3.02-6.764-6.732zm6.835.918c0 .506-.415.918-.925.918s-.925-.412-.925-.918.415-.918.925-.918.925.412.925.918zM4.402 26.233a.698.698 0 0 1-.98.001.682.682 0 0 1 0-.968l1.104-1.1.977.973-1.1 1.096zm3.688 4.285a.698.698 0 0 1-.981.001.682.682 0 0 1 0-.968l1.105-1.1.977.973L8.09 30.52zm3.996-3.981-.002.001-2.025 2.02-.977-.973 2.023-2.014v-.001l.002-.001a.598.598 0 0 0 .103-.155c.008-.016.023-.029.03-.046.019-.047.022-.098.029-.148.004-.028.016-.054.016-.083 0-.041-.015-.081-.023-.121-.007-.037-.007-.074-.021-.11a.596.596 0 0 0-.105-.158c-.012-.013-.016-.031-.029-.043h-.001l-.001-.002-1.844-1.836c-.02-.02-.045-.028-.067-.044a.596.596 0 0 0-.1-.066.522.522 0 0 0-.107-.037.587.587 0 0 0-.118-.023.585.585 0 0 0-.11.006.596.596 0 0 0-.119.023.533.533 0 0 0-.108.051c-.023.013-.048.017-.07.033l-2.035 1.519L5.393 23.3l2.753-2.738 5.004 4.921-1.064 1.055zm7.825-8.052c-.018-.002-.034.004-.052.003a.65.65 0 0 0-.233.032.646.646 0 0 0-.206.124c-.015.013-.032.019-.046.034l-5.391 5.905-4.967-4.885 3.251-3.234a.613.613 0 0 0-.436-1.045v-.001l-2.546.015.032-1.845 3.562.031a7.973 7.973 0 0 0 5.716 2.411c.502 0 .991-.052 1.468-.141.046.037.091.074.149.097l2.765 1.102.379 1.886-3.446-.49zm4.637.205-.359-1.788 1.66-1.239 1.086 1.442-2.387 1.585zm4.307-3.249-.962.901-1.069-1.419.954-.731a.84.84 0 0 1 .623-.164.82.82 0 0 1 .453 1.413z"/>
    </symbol>
    <symbol id="icon-pc" viewBox="0 0 32 32">
      <path d="M1.599 28.291h25.587a1.6 1.6 0 0 0 1.599-1.599V24.56a1.6 1.6 0 0 0-1.599-1.599h-.533V9.668L29.681 6.8a1.608 1.608 0 1 0-.746-.763L26.654 8.2V6.97a1.6 1.6 0 0 0-1.599-1.599H3.733A1.6 1.6 0 0 0 2.134 6.97v15.992h-.533a1.6 1.6 0 0 0-1.599 1.599v2.132a1.6 1.6 0 0 0 1.599 1.599zM30.384 4.837a.533.533 0 1 1 0 1.067.533.533 0 0 1 0-1.067zM3.198 6.969c0-.294.239-.533.533-.533h21.322c.294 0 .533.239.533.533v2.239l-1.066 1.013V8.035a.533.533 0 0 0-.533-.533H4.797a.533.533 0 0 0-.533.533v13.326c0 .294.239.533.533.533h19.19a.533.533 0 0 0 .533-.533v-9.674l1.066-1.01v12.284H3.198V6.969zm4.798 6.93a1.598 1.598 0 1 0 1.107 2.749l1.853.93a.532.532 0 0 0 .636-.123l3.939-4.431 3.872 2.901a.533.533 0 0 0 .686-.039l3.365-3.188v8.131H5.33V8.569h18.124v2.66l-3.771 3.572-3.904-2.927a.533.533 0 0 0-.718.072l-3.993 4.493-1.493-.746c.011-.064.018-.129.02-.193a1.6 1.6 0 0 0-1.599-1.599zm.533 1.599a.533.533 0 1 1-1.067 0 .533.533 0 0 1 1.067 0zm3.198 8.529h5.331v.533a.533.533 0 0 1-.533.533h-4.264a.533.533 0 0 1-.533-.533v-.533zm-10.661.533c0-.294.239-.533.533-.533h9.062v.533a1.6 1.6 0 0 0 1.599 1.599h4.264a1.6 1.6 0 0 0 1.599-1.599v-.533h9.062c.294 0 .533.239.533.533v2.132a.533.533 0 0 1-.533.533H1.598a.533.533 0 0 1-.533-.533V24.56z"/>
    </symbol>
    <symbol id="icon-clock" viewBox="0 0 31 32">
      <path d="M30.84 15.301C30.838 6.849 23.985-.002 15.532 0S.229 6.855.231 15.308A15.304 15.304 0 0 0 10.88 29.884a.662.662 0 0 0 .529-.065.637.637 0 0 0 .283-.356l3.865-12.25a1.912 1.912 0 1 0-.84-3.635L9.611 8.471a.637.637 0 0 0-.902.902l5.103 5.109a1.876 1.876 0 0 0 .536 2.309l-3.683 11.673C3.387 25.783-.339 17.71 2.342 10.432S13.096-.572 20.374 2.109s11.004 10.754 8.323 18.032a14.042 14.042 0 0 1-7.462 7.973l-.398-1.874a.638.638 0 0 0-1.048-.344l-3.837 3.426a.637.637 0 0 0 .231 1.084l4.899 1.563a.638.638 0 0 0 .819-.74l-.391-1.839a15.255 15.255 0 0 0 9.329-14.089zm-15.305-.637a.638.638 0 1 1 0 1.277.638.638 0 0 1 0-1.277zm2.1 14.864 2.184-1.948.603 2.84-2.787-.892z"/>
    </symbol>
    <symbol id="icon-antenna" viewBox="0 0 32 32">
      <path d="m30.773 22.098-8.443-8.505.937-4.615c.242.094.499.144.758.146h.006a2.159 2.159 0 1 0-2.008-1.435l-4.96.605L8.972.161a.534.534 0 0 0-.377-.16.532.532 0 0 0-.373.155L6.709 1.66a.534.534 0 0 0 0 .754l.814.826a14.943 14.943 0 0 0 2.519 17.663.513.513 0 0 0 .146.098c-.034.18-.051.364-.052.547v6.187h-6.4a2.67 2.67 0 0 0-2.667 2.667v1.067c0 .295.239.533.533.533h24.533a.533.533 0 0 0 .533-.533v-1.067a2.67 2.67 0 0 0-2.667-2.667h-6.4v-2.742a15.09 15.09 0 0 0 3.049.32 14.854 14.854 0 0 0 7.04-1.783l.818.823a.534.534 0 0 0 .377.16.532.532 0 0 0 .373-.155l1.513-1.504a.534.534 0 0 0 0-.754zM23.28 6.233a1.066 1.066 0 1 1 .752 1.822h-.003a1.067 1.067 0 0 1-.747-1.823h-.002zm-1.256 3.505-.598 2.946-1.175-1.182 1.774-1.763zm-.605-.902-1.92 1.909-1.485-1.493 3.405-.415zM24.004 28.8a1.6 1.6 0 0 1 1.6 1.6v.533H2.137V30.4a1.6 1.6 0 0 1 1.6-1.6h20.267zm-7.467-2.133v1.067h-5.333v-1.067h5.333zM11.204 25.6v-4.053c0-1.294 1.196-2.347 2.667-2.347s2.667 1.053 2.667 2.347V25.6h-5.333zm6.4-1.696v-2.357c0-1.882-1.675-3.413-3.733-3.413a3.8 3.8 0 0 0-3.281 1.786A13.87 13.87 0 0 1 8.311 4.033l18.602 18.708a13.818 13.818 0 0 1-9.309 1.163zm11.289-.684L7.836 2.039l.755-.752 7.935 7.98c.004 0 .006.007.01.01l13.115 13.191-.757.752z"/>
      <path d="M13.876 20.267h-.005a1.6 1.6 0 1 0-.004 3.2h.005a1.6 1.6 0 1 0 .004-3.2zm.373 1.978a.534.534 0 0 1-.752-.756.534.534 0 0 1 .373-.155.532.532 0 0 1 .373.911h.005z"/>
    </symbol>
    <symbol id="icon-linkedin" viewBox="0 0 32 32">
      <path d="M31.992 32v-.001H32V20.263c0-5.741-1.236-10.164-7.948-10.164-3.227 0-5.392 1.771-6.276 3.449h-.093v-2.913h-6.364v21.364h6.627V21.42c0-2.785.528-5.479 3.977-5.479 3.399 0 3.449 3.179 3.449 5.657v10.401h6.62zM.528 10.636h6.635V32H.528V10.636zM3.843 0C1.722 0 0 1.721 0 3.843s1.721 3.879 3.843 3.879c2.121 0 3.843-1.757 3.843-3.879A3.846 3.846 0 0 0 3.843 0z"/>
    </symbol>
    <symbol id="icon-facebook" viewBox="0 0 32 32">
      <path d="M20.529 5.313h2.921V.225C22.946.156 21.213 0 19.194 0c-4.212 0-7.097 2.649-7.097 7.519V12H7.449v5.688h4.648V32h5.699V17.689h4.46l.708-5.688h-5.169V8.082c.001-1.644.444-2.769 2.735-2.769z"/>
    </symbol>
    <symbol id="icon-twitter" viewBox="0 0 32 32">
      <path d="M32 6.078c-1.19.522-2.458.868-3.78 1.036a6.523 6.523 0 0 0 2.886-3.626 13.11 13.11 0 0 1-4.16 1.588A6.574 6.574 0 0 0 22.154 3c-3.632 0-6.556 2.948-6.556 6.562 0 .52.044 1.02.152 1.496-5.454-.266-10.28-2.88-13.522-6.862a6.605 6.605 0 0 0-.898 3.316 6.57 6.57 0 0 0 2.914 5.452 6.479 6.479 0 0 1-2.964-.808v.072c0 3.188 2.274 5.836 5.256 6.446a6.548 6.548 0 0 1-1.72.216 5.8 5.8 0 0 1-1.242-.112c.85 2.598 3.262 4.508 6.13 4.57a13.182 13.182 0 0 1-8.134 2.798c-.538 0-1.054-.024-1.57-.09A18.469 18.469 0 0 0 10.064 29c12.072 0 18.672-10 18.672-18.668 0-.29-.01-.57-.024-.848A13.087 13.087 0 0 0 32 6.078z"/>
    </symbol>
    <symbol id="icon-instagram" viewBox="0 0 32 32">
      <path d="M31.969 9.408c-.075-1.7-.35-2.869-.744-3.882a7.806 7.806 0 0 0-1.851-2.838A7.867 7.867 0 0 0 26.542.844C25.523.45 24.36.175 22.66.1 20.947.019 20.403 0 16.059 0s-4.888.019-6.595.094c-1.7.075-2.869.35-3.882.744a7.803 7.803 0 0 0-2.838 1.85A7.867 7.867 0 0 0 .9 5.52C.506 6.539.231 7.702.156 9.402c-.081 1.713-.1 2.257-.1 6.601s.019 4.888.094 6.595c.075 1.7.35 2.869.744 3.882a7.895 7.895 0 0 0 1.85 2.838 7.867 7.867 0 0 0 2.832 1.844c1.019.394 2.182.669 3.882.744 1.706.075 2.25.094 6.595.094s4.888-.019 6.595-.094c1.7-.075 2.869-.35 3.882-.744a8.184 8.184 0 0 0 4.682-4.682c.394-1.019.669-2.182.744-3.882.075-1.707.094-2.251.094-6.595s-.006-4.888-.081-6.595zm-2.882 13.065c-.069 1.563-.331 2.407-.55 2.969a5.31 5.31 0 0 1-3.038 3.038c-.563.219-1.413.481-2.969.55-1.688.075-2.194.094-6.464.094s-4.782-.019-6.464-.094c-1.563-.069-2.407-.331-2.969-.55a4.926 4.926 0 0 1-1.838-1.194 4.974 4.974 0 0 1-1.194-1.838c-.219-.563-.481-1.413-.55-2.969-.075-1.688-.094-2.194-.094-6.464s.019-4.782.094-6.464c.069-1.563.331-2.407.55-2.969a4.868 4.868 0 0 1 1.2-1.838A4.974 4.974 0 0 1 6.639 3.55c.563-.219 1.413-.481 2.969-.55 1.688-.075 2.194-.094 6.464-.094 4.276 0 4.782.019 6.464.094 1.563.069 2.407.331 2.969.55a4.914 4.914 0 0 1 1.838 1.194 4.974 4.974 0 0 1 1.194 1.838c.219.563.481 1.413.55 2.969.075 1.688.094 2.194.094 6.464s-.019 4.77-.094 6.458z"/>
      <path d="M16.059 7.783c-4.538 0-8.22 3.682-8.22 8.22s3.682 8.22 8.22 8.22c4.539 0 8.22-3.682 8.22-8.22s-3.682-8.22-8.22-8.22zm0 13.552a5.333 5.333 0 0 1 0-10.664 5.333 5.333 0 0 1 0 10.664zM26.524 7.458a1.919 1.919 0 1 1-3.838 0 1.919 1.919 0 0 1 3.838 0z"/>
    </symbol>
    <symbol id="icon-fosterpeters" viewBox="0 0 59 32">
      <path d="M19.529 12.905h-0.001c-0.834 0-1.51 0.601-1.51 1.342v0.001c0 0.741 0.676 1.342 1.51 1.342h0.001c0.834 0 1.51-0.601 1.51-1.342v-0.001c0-0.741-0.676-1.342-1.51-1.342z"></path>
      <path d="M30.677 12.476c-0.002-1.030-0.464-2.016-1.283-2.744s-1.929-1.138-3.088-1.141v0c-1.159 0.002-2.27 0.412-3.089 1.14s-1.281 1.715-1.283 2.745v5.678c0 0 8.742-0.865 8.743-5.677v-0.001z"></path>
      <path d="M14.957 20.017c0.002 0.716 0.323 1.403 0.893 1.91s1.342 0.792 2.148 0.794c0.806-0.002 1.578-0.288 2.148-0.794s0.891-1.193 0.893-1.909v-3.951c0 0-6.083 0.603-6.083 3.95zM17.998 20.725c-0.158 0-0.311-0.041-0.442-0.119s-0.233-0.188-0.293-0.318c-0.060-0.129-0.076-0.272-0.045-0.409s0.107-0.263 0.218-0.362c0.111-0.099 0.253-0.166 0.408-0.194s0.315-0.013 0.46 0.040c0.146 0.054 0.27 0.144 0.357 0.261s0.134 0.253 0.134 0.393c0 0.093-0.020 0.186-0.060 0.272s-0.098 0.165-0.172 0.23c-0.074 0.066-0.162 0.118-0.259 0.154s-0.201 0.054-0.305 0.054v-0.003z"></path>
      <path d="M24.145 20.335h-0.587v0.606h-0.306v-1.484h0.966v0.248h-0.66v0.383h0.587v0.247zM25.615 20.233c0 0.146-0.026 0.274-0.077 0.384s-0.126 0.195-0.222 0.255c-0.096 0.060-0.206 0.090-0.33 0.090-0.123 0-0.233-0.030-0.329-0.089s-0.171-0.143-0.224-0.253c-0.053-0.11-0.080-0.236-0.081-0.379v-0.073c0-0.146 0.026-0.274 0.078-0.385s0.127-0.197 0.223-0.256c0.096-0.060 0.207-0.090 0.33-0.090s0.233 0.030 0.329 0.090c0.096 0.059 0.171 0.144 0.223 0.256s0.079 0.239 0.079 0.384v0.066zM25.305 20.166c0-0.156-0.028-0.274-0.084-0.355s-0.135-0.121-0.238-0.121c-0.103 0-0.182 0.040-0.237 0.12s-0.084 0.196-0.085 0.351v0.072c0 0.151 0.028 0.269 0.084 0.353s0.136 0.125 0.241 0.125c0.103 0 0.181-0.040 0.236-0.12s0.083-0.198 0.084-0.353v-0.072zM26.606 20.552c0-0.058-0.020-0.102-0.061-0.133s-0.114-0.064-0.22-0.098c-0.106-0.035-0.19-0.069-0.252-0.102-0.168-0.091-0.253-0.214-0.253-0.368 0-0.080 0.022-0.151 0.067-0.214s0.11-0.112 0.195-0.148c0.085-0.035 0.18-0.053 0.285-0.053s0.2 0.019 0.283 0.058c0.083 0.038 0.147 0.092 0.193 0.162s0.069 0.149 0.069 0.238h-0.306c0-0.068-0.021-0.121-0.064-0.158s-0.103-0.057-0.18-0.057c-0.075 0-0.133 0.016-0.174 0.048s-0.062 0.073-0.062 0.124c0 0.048 0.024 0.089 0.072 0.121s0.121 0.063 0.215 0.092c0.174 0.052 0.301 0.117 0.38 0.195s0.119 0.174 0.119 0.289c0 0.128-0.049 0.229-0.146 0.303s-0.228 0.109-0.392 0.109c-0.114 0-0.218-0.021-0.312-0.062s-0.165-0.099-0.215-0.172c-0.049-0.073-0.073-0.157-0.073-0.253h0.307c0 0.164 0.098 0.246 0.293 0.246 0.073 0 0.129-0.015 0.17-0.044s0.061-0.071 0.061-0.124zM28.238 19.705h-0.454v1.236h-0.306v-1.236h-0.448v-0.248h1.209v0.248zM29.306 20.299h-0.587v0.397h0.689v0.246h-0.995v-1.484h0.993v0.248h-0.687v0.354h0.587v0.239zM30.136 20.398h-0.244v0.543h-0.306v-1.484h0.551c0.175 0 0.31 0.039 0.406 0.117s0.143 0.189 0.143 0.331c0 0.101-0.022 0.186-0.066 0.254s-0.11 0.121-0.199 0.161l0.321 0.606v0.014h-0.328l-0.278-0.543zM29.893 20.151h0.247c0.077 0 0.136-0.019 0.178-0.058s0.063-0.093 0.063-0.162c0-0.070-0.020-0.125-0.060-0.165s-0.1-0.060-0.182-0.060h-0.246v0.445zM31.745 20.419v0.523h-0.306v-1.484h0.579c0.111 0 0.209 0.020 0.294 0.061s0.15 0.099 0.196 0.174c0.045 0.075 0.068 0.16 0.068 0.256 0 0.145-0.050 0.26-0.15 0.344s-0.237 0.125-0.413 0.125h-0.268zM31.745 20.171h0.273c0.081 0 0.142-0.019 0.184-0.057s0.064-0.092 0.064-0.163c0-0.073-0.021-0.131-0.064-0.176s-0.102-0.068-0.177-0.069h-0.28v0.466zM33.679 20.299h-0.587v0.397h0.689v0.246h-0.995v-1.484h0.993v0.248h-0.687v0.354h0.587v0.239zM35.098 19.705h-0.455v1.236h-0.306v-1.236h-0.448v-0.248h1.209v0.248zM36.166 20.299h-0.587v0.397h0.689v0.246h-0.994v-1.484h0.992v0.248h-0.687v0.354h0.587v0.239zM36.996 20.398h-0.243v0.543h-0.306v-1.484h0.551c0.175 0 0.31 0.039 0.406 0.117s0.143 0.189 0.143 0.331c0 0.101-0.022 0.186-0.066 0.254s-0.11 0.121-0.199 0.161l0.321 0.606v0.014h-0.328l-0.278-0.543zM36.753 20.151h0.247c0.077 0 0.136-0.019 0.178-0.058s0.063-0.093 0.063-0.162c0-0.070-0.020-0.125-0.060-0.165s-0.1-0.060-0.182-0.060h-0.246v0.445zM38.549 20.552c0-0.058-0.021-0.102-0.061-0.133s-0.114-0.064-0.22-0.098c-0.106-0.035-0.19-0.069-0.251-0.102-0.169-0.091-0.253-0.214-0.253-0.368 0-0.080 0.022-0.151 0.067-0.214s0.111-0.112 0.195-0.148c0.085-0.035 0.18-0.053 0.285-0.053 0.106 0 0.2 0.019 0.283 0.058s0.147 0.092 0.192 0.162c0.046 0.070 0.070 0.149 0.070 0.238h-0.306c0-0.068-0.022-0.121-0.064-0.158s-0.103-0.057-0.18-0.057c-0.075 0-0.133 0.016-0.174 0.048s-0.062 0.073-0.062 0.124c0 0.048 0.024 0.089 0.072 0.121s0.121 0.063 0.215 0.092c0.174 0.052 0.301 0.117 0.38 0.195s0.119 0.174 0.119 0.289c0 0.128-0.049 0.229-0.146 0.303s-0.228 0.109-0.392 0.109c-0.114 0-0.218-0.021-0.312-0.062s-0.165-0.099-0.215-0.172c-0.049-0.073-0.073-0.157-0.073-0.253h0.307c0 0.164 0.098 0.246 0.294 0.246 0.073 0 0.129-0.015 0.17-0.044s0.061-0.071 0.061-0.124z"></path>
    </symbol>
  </defs>
</svg>
